<?xml version="1.0" standalone="no"?><!DOCTYPE svg PUBLIC "-//W3C//DTD SVG 1.1//EN" "http://www.w3.org/Graphics/SVG/1.1/DTD/svg11.dtd"><svg class="icon" width="200px" height="200.00px" viewBox="0 0 1024 1024" version="1.1" xmlns="http://www.w3.org/2000/svg"><path d="M512 1024a512 512 0 1 1 512-512 512 512 0 0 1-512 512z m0-64a447.232 447.232 0 0 0 285.536-102.72l-53.024-225.28L510.272 960H512z m-75.392-7.04L568.672 768H144.64a447.488 447.488 0 0 0 291.968 184.96zM107.68 704h235.584l-267.232-291.52A434.72 434.72 0 0 0 107.68 704z m-9.792-362.24l163.2 177.92 9.6-162.56 13.536-230.4a450.24 450.24 0 0 0-186.336 215.04z m223.488 243.52l108.8 118.72h184.32l110.624-154.88-43.104-183.36-193.632-72.32-155.616 99.84zM512 64a445.12 445.12 0 0 0-161.728 30.72l-12.8 219.52L677.152 96A442.144 442.144 0 0 0 512 64z m231.712 64.96l-188.256 121.28 171.776 64.32 9.152 3.52 208 77.76a449.536 449.536 0 0 0-200.672-266.88z m10.336 264l39.904 169.6 56.896 241.92A445.504 445.504 0 0 0 960 512c0-14.4-0.832-28.48-2.144-42.56z" fill="#2c2c2c" /></svg>